<svg xmlns="http://www.w3.org/2000/svg" viewBox="0 0 32 32">
  <rect x="2" y="4" width="28" height="24" rx="3" fill="#2563eb" />
  
  <text x="4" y="9" font-family="Arial, sans-serif" font-size="2.5" fill="white" font-weight="bold">MON</text>
  <text x="13" y="9" font-family="Arial, sans-serif" font-size="2.5" fill="white" font-weight="bold">TUE</text>
  <text x="22" y="9" font-family="Arial, sans-serif" font-size="2.5" fill="white" font-weight="bold">WED</text>
  
  <line x1="2" y1="11" x2="30" y2="11" stroke="white" stroke-width="0.5" stroke-opacity="0.3" />
  <line x1="2" y1="19" x2="30" y2="19" stroke="white" stroke-width="0.5" stroke-opacity="0.3" />

  <rect x="3.5" y="12.5" width="7" height="5" rx="1" fill="white" fill-opacity="0.2" />
  <text x="4.5" y="15.5" font-family="Arial, sans-serif" font-size="2" fill="white">MATH</text>
  
  <rect x="12.5" y="12.5" width="7" height="5" rx="1" fill="white" fill-opacity="0.2" />
  <text x="13.2" y="15.5" font-family="Arial, sans-serif" font-size="2" fill="white">HIST</text>
  
  <rect x="21.5" y="12.5" width="7" height="5" rx="1" fill="white" fill-opacity="0.2" />
  <text x="22.2" y="15.5" font-family="Arial, sans-serif" font-size="2" fill="white">SCI</text>

  <text x="4" y="23" font-family="Arial, sans-serif" font-size="1.8" fill="white" fill-opacity="0.8">09:00</text>
  <text x="13" y="23" font-family="Arial, sans-serif" font-size="1.8" fill="white" fill-opacity="0.8">11:00</text>
  <text x="22" y="23" font-family="Arial, sans-serif" font-size="1.8" fill="white" fill-opacity="0.8">13:00</text>

  <path d="M26 22c0 2-1.5 3.5-3.5 3.5 2 0 3.5 1.5 3.5 3.5 0-2 1.5-3.5 3.5-3.5-2 0-3.5-1.5-3.5-3.5z" fill="#000000" />
</svg>
